<mxfile host="app.diagrams.net" agent="Mozilla/5.0 (Windows NT 10.0; Win64; x64) AppleWebKit/537.36 (KHTML, like Gecko) Chrome/129.0.0.0 Safari/537.36" version="24.7.17">
  <diagram id="C5RBs43oDa-KdzZeNtuy" name="Page-1">
    <mxGraphModel dx="1985" dy="1115" grid="1" gridSize="10" guides="1" tooltips="1" connect="1" arrows="1" fold="1" page="1" pageScale="1" pageWidth="827" pageHeight="1169" math="0" shadow="0">
      <root>
        <mxCell id="WIyWlLk6GJQsqaUBKTNV-0" />
        <mxCell id="WIyWlLk6GJQsqaUBKTNV-1" parent="WIyWlLk6GJQsqaUBKTNV-0" />
        <mxCell id="X-HXbELfSK2ipohYZ36a-0" value="Start" style="whiteSpace=wrap;strokeWidth=2;" vertex="1" parent="WIyWlLk6GJQsqaUBKTNV-1">
          <mxGeometry x="727" y="50" width="95" height="49" as="geometry" />
        </mxCell>
        <mxCell id="X-HXbELfSK2ipohYZ36a-1" value="Selamat Datang Di Aplikasi APDFLIX" style="whiteSpace=wrap;strokeWidth=2;" vertex="1" parent="WIyWlLk6GJQsqaUBKTNV-1">
          <mxGeometry x="649" y="149" width="250" height="66" as="geometry" />
        </mxCell>
        <mxCell id="X-HXbELfSK2ipohYZ36a-2" value="Pilih Opsi: 1. Daftar akun, 2. Login, 3. Exit" style="whiteSpace=wrap;strokeWidth=2;" vertex="1" parent="WIyWlLk6GJQsqaUBKTNV-1">
          <mxGeometry x="651" y="265" width="246" height="66" as="geometry" />
        </mxCell>
        <mxCell id="X-HXbELfSK2ipohYZ36a-3" value="Opsi" style="rhombus;strokeWidth=2;whiteSpace=wrap;" vertex="1" parent="WIyWlLk6GJQsqaUBKTNV-1">
          <mxGeometry x="670.5" y="381" width="79" height="79" as="geometry" />
        </mxCell>
        <mxCell id="X-HXbELfSK2ipohYZ36a-4" value="Daftar Akun" style="whiteSpace=wrap;strokeWidth=2;" vertex="1" parent="WIyWlLk6GJQsqaUBKTNV-1">
          <mxGeometry x="214" y="533" width="144" height="49" as="geometry" />
        </mxCell>
        <mxCell id="X-HXbELfSK2ipohYZ36a-5" value="Input Username" style="whiteSpace=wrap;strokeWidth=2;" vertex="1" parent="WIyWlLk6GJQsqaUBKTNV-1">
          <mxGeometry x="199" y="656" width="173" height="49" as="geometry" />
        </mxCell>
        <mxCell id="X-HXbELfSK2ipohYZ36a-6" value="Cek Username" style="rhombus;strokeWidth=2;whiteSpace=wrap;" vertex="1" parent="WIyWlLk6GJQsqaUBKTNV-1">
          <mxGeometry x="211" y="825" width="151" height="151" as="geometry" />
        </mxCell>
        <mxCell id="X-HXbELfSK2ipohYZ36a-7" value="Username Sudah Terpakai" style="whiteSpace=wrap;strokeWidth=2;" vertex="1" parent="WIyWlLk6GJQsqaUBKTNV-1">
          <mxGeometry x="20" y="1073" width="243" height="49" as="geometry" />
        </mxCell>
        <mxCell id="X-HXbELfSK2ipohYZ36a-8" value="Input Password dan Role" style="whiteSpace=wrap;strokeWidth=2;" vertex="1" parent="WIyWlLk6GJQsqaUBKTNV-1">
          <mxGeometry x="313" y="1073" width="234" height="49" as="geometry" />
        </mxCell>
        <mxCell id="X-HXbELfSK2ipohYZ36a-9" value="Akun Terdaftar" style="whiteSpace=wrap;strokeWidth=2;" vertex="1" parent="WIyWlLk6GJQsqaUBKTNV-1">
          <mxGeometry x="358" y="1250" width="167" height="49" as="geometry" />
        </mxCell>
        <mxCell id="X-HXbELfSK2ipohYZ36a-10" value="Login" style="whiteSpace=wrap;strokeWidth=2;" vertex="1" parent="WIyWlLk6GJQsqaUBKTNV-1">
          <mxGeometry x="951" y="533" width="98" height="49" as="geometry" />
        </mxCell>
        <mxCell id="X-HXbELfSK2ipohYZ36a-11" value="Input Username dan Password" style="whiteSpace=wrap;strokeWidth=2;" vertex="1" parent="WIyWlLk6GJQsqaUBKTNV-1">
          <mxGeometry x="898" y="647" width="204" height="66" as="geometry" />
        </mxCell>
        <mxCell id="X-HXbELfSK2ipohYZ36a-12" value="Cek Username dan Password" style="rhombus;strokeWidth=2;whiteSpace=wrap;" vertex="1" parent="WIyWlLk6GJQsqaUBKTNV-1">
          <mxGeometry x="900" y="801" width="199" height="199" as="geometry" />
        </mxCell>
        <mxCell id="X-HXbELfSK2ipohYZ36a-13" value="Selamat Datang!" style="whiteSpace=wrap;strokeWidth=2;" vertex="1" parent="WIyWlLk6GJQsqaUBKTNV-1">
          <mxGeometry x="1197.5" y="1073" width="178" height="49" as="geometry" />
        </mxCell>
        <mxCell id="X-HXbELfSK2ipohYZ36a-14" value="Pesan Error" style="whiteSpace=wrap;strokeWidth=2;" vertex="1" parent="WIyWlLk6GJQsqaUBKTNV-1">
          <mxGeometry x="957" y="1090" width="142" height="49" as="geometry" />
        </mxCell>
        <mxCell id="X-HXbELfSK2ipohYZ36a-15" value="Role" style="rhombus;strokeWidth=2;whiteSpace=wrap;" vertex="1" parent="WIyWlLk6GJQsqaUBKTNV-1">
          <mxGeometry x="1247" y="1180" width="79" height="79" as="geometry" />
        </mxCell>
        <mxCell id="X-HXbELfSK2ipohYZ36a-16" value="Menu Admin" style="whiteSpace=wrap;strokeWidth=2;" vertex="1" parent="WIyWlLk6GJQsqaUBKTNV-1">
          <mxGeometry x="1004.5" y="1310" width="147" height="49" as="geometry" />
        </mxCell>
        <mxCell id="X-HXbELfSK2ipohYZ36a-17" value="Menu Pengguna" style="whiteSpace=wrap;strokeWidth=2;" vertex="1" parent="WIyWlLk6GJQsqaUBKTNV-1">
          <mxGeometry x="1500.5" y="1310" width="171" height="49" as="geometry" />
        </mxCell>
        <mxCell id="X-HXbELfSK2ipohYZ36a-18" value="Pilih Opsi: 1. Tambah serial, 2. Lihat serial, 3. Update episode, 4. Hapus serial, 5. Logout" style="rhombus;strokeWidth=2;whiteSpace=wrap;" vertex="1" parent="WIyWlLk6GJQsqaUBKTNV-1">
          <mxGeometry x="935" y="1423" width="286" height="286" as="geometry" />
        </mxCell>
        <mxCell id="X-HXbELfSK2ipohYZ36a-19" value="Input Judul dan Jumlah Episode" style="whiteSpace=wrap;strokeWidth=2;" vertex="1" parent="WIyWlLk6GJQsqaUBKTNV-1">
          <mxGeometry x="237" y="1781" width="228" height="66" as="geometry" />
        </mxCell>
        <mxCell id="X-HXbELfSK2ipohYZ36a-20" value="Lihat Daftar Serial" style="whiteSpace=wrap;strokeWidth=2;" vertex="1" parent="WIyWlLk6GJQsqaUBKTNV-1">
          <mxGeometry x="515" y="1790" width="191" height="49" as="geometry" />
        </mxCell>
        <mxCell id="X-HXbELfSK2ipohYZ36a-21" value="Update Jumlah Episode" style="whiteSpace=wrap;strokeWidth=2;" vertex="1" parent="WIyWlLk6GJQsqaUBKTNV-1">
          <mxGeometry x="756" y="1790" width="228" height="49" as="geometry" />
        </mxCell>
        <mxCell id="X-HXbELfSK2ipohYZ36a-22" value="Hapus Serial" style="whiteSpace=wrap;strokeWidth=2;" vertex="1" parent="WIyWlLk6GJQsqaUBKTNV-1">
          <mxGeometry x="1033" y="1790" width="148" height="49" as="geometry" />
        </mxCell>
        <mxCell id="X-HXbELfSK2ipohYZ36a-23" value="Logout" style="whiteSpace=wrap;strokeWidth=2;" vertex="1" parent="WIyWlLk6GJQsqaUBKTNV-1">
          <mxGeometry x="1232" y="1790" width="109" height="49" as="geometry" />
        </mxCell>
        <mxCell id="X-HXbELfSK2ipohYZ36a-24" value="Pilih Opsi: 1. Lihat serial, 2. Logout" style="rhombus;strokeWidth=2;whiteSpace=wrap;" vertex="1" parent="WIyWlLk6GJQsqaUBKTNV-1">
          <mxGeometry x="1462" y="1441" width="248" height="248" as="geometry" />
        </mxCell>
        <mxCell id="X-HXbELfSK2ipohYZ36a-25" value="Lihat Daftar Serial" style="whiteSpace=wrap;strokeWidth=2;" vertex="1" parent="WIyWlLk6GJQsqaUBKTNV-1">
          <mxGeometry x="1390" y="1790" width="191" height="49" as="geometry" />
        </mxCell>
        <mxCell id="X-HXbELfSK2ipohYZ36a-26" value="Logout" style="whiteSpace=wrap;strokeWidth=2;" vertex="1" parent="WIyWlLk6GJQsqaUBKTNV-1">
          <mxGeometry x="1632" y="1790" width="109" height="49" as="geometry" />
        </mxCell>
        <mxCell id="X-HXbELfSK2ipohYZ36a-27" value="Konfirmasi Keluar" style="whiteSpace=wrap;strokeWidth=2;" vertex="1" parent="WIyWlLk6GJQsqaUBKTNV-1">
          <mxGeometry x="617" y="533" width="186" height="49" as="geometry" />
        </mxCell>
        <mxCell id="X-HXbELfSK2ipohYZ36a-28" value="Pilihan" style="rhombus;strokeWidth=2;whiteSpace=wrap;" vertex="1" parent="WIyWlLk6GJQsqaUBKTNV-1">
          <mxGeometry x="726" y="632" width="97" height="97" as="geometry" />
        </mxCell>
        <mxCell id="X-HXbELfSK2ipohYZ36a-29" value="Terima Kasih" style="whiteSpace=wrap;strokeWidth=2;" vertex="1" parent="WIyWlLk6GJQsqaUBKTNV-1">
          <mxGeometry x="699" y="877" width="151" height="49" as="geometry" />
        </mxCell>
        <mxCell id="X-HXbELfSK2ipohYZ36a-30" value="" style="curved=1;startArrow=none;endArrow=block;exitX=0.5;exitY=0.99;entryX=0.5;entryY=-0.01;rounded=0;" edge="1" parent="WIyWlLk6GJQsqaUBKTNV-1" source="X-HXbELfSK2ipohYZ36a-0" target="X-HXbELfSK2ipohYZ36a-1">
          <mxGeometry relative="1" as="geometry">
            <Array as="points" />
          </mxGeometry>
        </mxCell>
        <mxCell id="X-HXbELfSK2ipohYZ36a-31" value="" style="curved=1;startArrow=none;endArrow=block;exitX=0.5;exitY=1;entryX=0.5;entryY=0;rounded=0;" edge="1" parent="WIyWlLk6GJQsqaUBKTNV-1" source="X-HXbELfSK2ipohYZ36a-1" target="X-HXbELfSK2ipohYZ36a-2">
          <mxGeometry relative="1" as="geometry">
            <Array as="points" />
          </mxGeometry>
        </mxCell>
        <mxCell id="X-HXbELfSK2ipohYZ36a-34" value="" style="curved=1;startArrow=none;endArrow=block;exitX=0.5;exitY=1;entryX=0.5;entryY=0;rounded=0;" edge="1" parent="WIyWlLk6GJQsqaUBKTNV-1" source="X-HXbELfSK2ipohYZ36a-4" target="X-HXbELfSK2ipohYZ36a-5">
          <mxGeometry relative="1" as="geometry">
            <Array as="points" />
          </mxGeometry>
        </mxCell>
        <mxCell id="X-HXbELfSK2ipohYZ36a-35" value="" style="curved=1;startArrow=none;endArrow=block;exitX=0.5;exitY=0.99;entryX=0.5;entryY=0;rounded=0;" edge="1" parent="WIyWlLk6GJQsqaUBKTNV-1" source="X-HXbELfSK2ipohYZ36a-5" target="X-HXbELfSK2ipohYZ36a-6">
          <mxGeometry relative="1" as="geometry">
            <Array as="points" />
          </mxGeometry>
        </mxCell>
        <mxCell id="X-HXbELfSK2ipohYZ36a-41" value="" style="curved=1;startArrow=none;endArrow=block;exitX=0.5;exitY=1;entryX=0.5;entryY=0;rounded=0;" edge="1" parent="WIyWlLk6GJQsqaUBKTNV-1" source="X-HXbELfSK2ipohYZ36a-10" target="X-HXbELfSK2ipohYZ36a-11">
          <mxGeometry relative="1" as="geometry">
            <Array as="points" />
          </mxGeometry>
        </mxCell>
        <mxCell id="X-HXbELfSK2ipohYZ36a-42" value="" style="curved=1;startArrow=none;endArrow=block;exitX=0.5;exitY=1.01;entryX=0.5;entryY=0;rounded=0;" edge="1" parent="WIyWlLk6GJQsqaUBKTNV-1" source="X-HXbELfSK2ipohYZ36a-11" target="X-HXbELfSK2ipohYZ36a-12">
          <mxGeometry relative="1" as="geometry">
            <Array as="points" />
          </mxGeometry>
        </mxCell>
        <mxCell id="X-HXbELfSK2ipohYZ36a-44" value="Tidak Valid" style="curved=1;startArrow=none;endArrow=block;exitX=0.5;exitY=1;rounded=0;" edge="1" parent="WIyWlLk6GJQsqaUBKTNV-1" source="X-HXbELfSK2ipohYZ36a-12">
          <mxGeometry relative="1" as="geometry">
            <Array as="points">
              <mxPoint x="1000" y="1037" />
            </Array>
            <mxPoint x="1001" y="1090" as="targetPoint" />
          </mxGeometry>
        </mxCell>
        <mxCell id="X-HXbELfSK2ipohYZ36a-46" value="" style="curved=1;startArrow=none;endArrow=block;exitX=0.5;exitY=1;entryX=0.5;entryY=0;rounded=0;" edge="1" parent="WIyWlLk6GJQsqaUBKTNV-1" source="X-HXbELfSK2ipohYZ36a-13" target="X-HXbELfSK2ipohYZ36a-15">
          <mxGeometry relative="1" as="geometry">
            <Array as="points" />
          </mxGeometry>
        </mxCell>
        <mxCell id="X-HXbELfSK2ipohYZ36a-49" value="" style="curved=1;startArrow=none;endArrow=block;exitX=0.5;exitY=0.99;entryX=0.5;entryY=0;rounded=0;" edge="1" parent="WIyWlLk6GJQsqaUBKTNV-1" source="X-HXbELfSK2ipohYZ36a-16" target="X-HXbELfSK2ipohYZ36a-18">
          <mxGeometry relative="1" as="geometry">
            <Array as="points" />
          </mxGeometry>
        </mxCell>
        <mxCell id="X-HXbELfSK2ipohYZ36a-50" value="1" style="curved=1;startArrow=none;endArrow=block;exitX=0;exitY=0.62;entryX=0.5;entryY=0;rounded=0;" edge="1" parent="WIyWlLk6GJQsqaUBKTNV-1" source="X-HXbELfSK2ipohYZ36a-18" target="X-HXbELfSK2ipohYZ36a-19">
          <mxGeometry relative="1" as="geometry">
            <Array as="points">
              <mxPoint x="351" y="1745" />
            </Array>
          </mxGeometry>
        </mxCell>
        <mxCell id="X-HXbELfSK2ipohYZ36a-51" value="2" style="curved=1;startArrow=none;endArrow=block;exitX=0;exitY=0.69;entryX=0.5;entryY=0;rounded=0;" edge="1" parent="WIyWlLk6GJQsqaUBKTNV-1" source="X-HXbELfSK2ipohYZ36a-18" target="X-HXbELfSK2ipohYZ36a-20">
          <mxGeometry relative="1" as="geometry">
            <Array as="points">
              <mxPoint x="610" y="1745" />
            </Array>
          </mxGeometry>
        </mxCell>
        <mxCell id="X-HXbELfSK2ipohYZ36a-52" value="3" style="curved=1;startArrow=none;endArrow=block;exitX=0;exitY=0.93;entryX=0.5;entryY=0;rounded=0;" edge="1" parent="WIyWlLk6GJQsqaUBKTNV-1" source="X-HXbELfSK2ipohYZ36a-18" target="X-HXbELfSK2ipohYZ36a-21">
          <mxGeometry relative="1" as="geometry">
            <Array as="points">
              <mxPoint x="870" y="1745" />
            </Array>
          </mxGeometry>
        </mxCell>
        <mxCell id="X-HXbELfSK2ipohYZ36a-53" value="4" style="curved=1;startArrow=none;endArrow=block;exitX=0.58;exitY=1;entryX=0.5;entryY=0;rounded=0;" edge="1" parent="WIyWlLk6GJQsqaUBKTNV-1" source="X-HXbELfSK2ipohYZ36a-18" target="X-HXbELfSK2ipohYZ36a-22">
          <mxGeometry relative="1" as="geometry">
            <Array as="points">
              <mxPoint x="1108" y="1745" />
            </Array>
          </mxGeometry>
        </mxCell>
        <mxCell id="X-HXbELfSK2ipohYZ36a-54" value="5" style="curved=1;startArrow=none;endArrow=block;exitX=1;exitY=0.93;entryX=0.5;entryY=0;rounded=0;" edge="1" parent="WIyWlLk6GJQsqaUBKTNV-1" source="X-HXbELfSK2ipohYZ36a-18" target="X-HXbELfSK2ipohYZ36a-23">
          <mxGeometry relative="1" as="geometry">
            <Array as="points">
              <mxPoint x="1286" y="1745" />
            </Array>
          </mxGeometry>
        </mxCell>
        <mxCell id="X-HXbELfSK2ipohYZ36a-55" value="" style="curved=1;startArrow=none;endArrow=block;exitX=0.5;exitY=0.99;entryX=0.5;entryY=0;rounded=0;" edge="1" parent="WIyWlLk6GJQsqaUBKTNV-1" source="X-HXbELfSK2ipohYZ36a-17" target="X-HXbELfSK2ipohYZ36a-24">
          <mxGeometry relative="1" as="geometry">
            <Array as="points" />
          </mxGeometry>
        </mxCell>
        <mxCell id="X-HXbELfSK2ipohYZ36a-56" value="1" style="curved=1;startArrow=none;endArrow=block;exitX=0.22;exitY=1;entryX=0.5;entryY=0;rounded=0;" edge="1" parent="WIyWlLk6GJQsqaUBKTNV-1" source="X-HXbELfSK2ipohYZ36a-24" target="X-HXbELfSK2ipohYZ36a-25">
          <mxGeometry relative="1" as="geometry">
            <Array as="points">
              <mxPoint x="1486" y="1745" />
            </Array>
          </mxGeometry>
        </mxCell>
        <mxCell id="X-HXbELfSK2ipohYZ36a-57" value="2" style="curved=1;startArrow=none;endArrow=block;exitX=0.78;exitY=1;entryX=0.5;entryY=0;rounded=0;" edge="1" parent="WIyWlLk6GJQsqaUBKTNV-1" source="X-HXbELfSK2ipohYZ36a-24" target="X-HXbELfSK2ipohYZ36a-26">
          <mxGeometry relative="1" as="geometry">
            <Array as="points">
              <mxPoint x="1686" y="1745" />
            </Array>
          </mxGeometry>
        </mxCell>
        <mxCell id="X-HXbELfSK2ipohYZ36a-58" value="3" style="curved=1;startArrow=none;endArrow=block;exitX=0.51;exitY=1.01;entryX=0.5;entryY=0.01;rounded=0;" edge="1" parent="WIyWlLk6GJQsqaUBKTNV-1" source="X-HXbELfSK2ipohYZ36a-3" target="X-HXbELfSK2ipohYZ36a-27">
          <mxGeometry relative="1" as="geometry">
            <Array as="points" />
          </mxGeometry>
        </mxCell>
        <mxCell id="X-HXbELfSK2ipohYZ36a-60" value="Ya" style="curved=1;startArrow=none;endArrow=block;exitX=0.5;exitY=0.99;entryX=0.5;entryY=-0.01;rounded=0;" edge="1" parent="WIyWlLk6GJQsqaUBKTNV-1" source="X-HXbELfSK2ipohYZ36a-28" target="X-HXbELfSK2ipohYZ36a-29">
          <mxGeometry relative="1" as="geometry">
            <Array as="points" />
          </mxGeometry>
        </mxCell>
        <mxCell id="X-HXbELfSK2ipohYZ36a-63" value="" style="endArrow=none;html=1;rounded=0;entryX=0;entryY=0.5;entryDx=0;entryDy=0;" edge="1" parent="WIyWlLk6GJQsqaUBKTNV-1" target="X-HXbELfSK2ipohYZ36a-3">
          <mxGeometry width="50" height="50" relative="1" as="geometry">
            <mxPoint x="280" y="420" as="sourcePoint" />
            <mxPoint x="540" y="500" as="targetPoint" />
          </mxGeometry>
        </mxCell>
        <mxCell id="X-HXbELfSK2ipohYZ36a-64" value="" style="endArrow=classic;html=1;rounded=0;entryX=0.453;entryY=0.09;entryDx=0;entryDy=0;entryPerimeter=0;" edge="1" parent="WIyWlLk6GJQsqaUBKTNV-1" target="X-HXbELfSK2ipohYZ36a-4">
          <mxGeometry width="50" height="50" relative="1" as="geometry">
            <mxPoint x="280" y="420" as="sourcePoint" />
            <mxPoint x="340" y="540" as="targetPoint" />
          </mxGeometry>
        </mxCell>
        <mxCell id="X-HXbELfSK2ipohYZ36a-66" value="" style="endArrow=none;html=1;rounded=0;entryX=0;entryY=0.5;entryDx=0;entryDy=0;" edge="1" parent="WIyWlLk6GJQsqaUBKTNV-1" target="X-HXbELfSK2ipohYZ36a-6">
          <mxGeometry width="50" height="50" relative="1" as="geometry">
            <mxPoint x="120" y="900" as="sourcePoint" />
            <mxPoint x="340" y="980" as="targetPoint" />
          </mxGeometry>
        </mxCell>
        <mxCell id="X-HXbELfSK2ipohYZ36a-67" value="" style="endArrow=classic;html=1;rounded=0;" edge="1" parent="WIyWlLk6GJQsqaUBKTNV-1">
          <mxGeometry width="50" height="50" relative="1" as="geometry">
            <mxPoint x="120" y="900" as="sourcePoint" />
            <mxPoint x="120" y="1070" as="targetPoint" />
          </mxGeometry>
        </mxCell>
        <mxCell id="X-HXbELfSK2ipohYZ36a-68" value="Ada" style="edgeLabel;html=1;align=center;verticalAlign=middle;resizable=0;points=[];" vertex="1" connectable="0" parent="X-HXbELfSK2ipohYZ36a-67">
          <mxGeometry x="-0.0445" relative="1" as="geometry">
            <mxPoint as="offset" />
          </mxGeometry>
        </mxCell>
        <mxCell id="X-HXbELfSK2ipohYZ36a-69" value="" style="endArrow=classic;html=1;rounded=0;" edge="1" parent="WIyWlLk6GJQsqaUBKTNV-1">
          <mxGeometry width="50" height="50" relative="1" as="geometry">
            <mxPoint x="440" y="900" as="sourcePoint" />
            <mxPoint x="440" y="1070" as="targetPoint" />
          </mxGeometry>
        </mxCell>
        <mxCell id="X-HXbELfSK2ipohYZ36a-70" value="" style="endArrow=none;html=1;rounded=0;" edge="1" parent="WIyWlLk6GJQsqaUBKTNV-1" source="X-HXbELfSK2ipohYZ36a-6">
          <mxGeometry width="50" height="50" relative="1" as="geometry">
            <mxPoint x="290" y="1030" as="sourcePoint" />
            <mxPoint x="440" y="900" as="targetPoint" />
          </mxGeometry>
        </mxCell>
        <mxCell id="X-HXbELfSK2ipohYZ36a-76" value="" style="endArrow=none;html=1;rounded=0;" edge="1" parent="WIyWlLk6GJQsqaUBKTNV-1">
          <mxGeometry width="50" height="50" relative="1" as="geometry">
            <mxPoint x="580" y="1280" as="sourcePoint" />
            <mxPoint x="570" y="300" as="targetPoint" />
          </mxGeometry>
        </mxCell>
        <mxCell id="X-HXbELfSK2ipohYZ36a-77" value="" style="endArrow=classic;html=1;rounded=0;entryX=0;entryY=0.5;entryDx=0;entryDy=0;" edge="1" parent="WIyWlLk6GJQsqaUBKTNV-1" target="X-HXbELfSK2ipohYZ36a-2">
          <mxGeometry width="50" height="50" relative="1" as="geometry">
            <mxPoint x="570" y="300" as="sourcePoint" />
            <mxPoint x="640" y="310" as="targetPoint" />
          </mxGeometry>
        </mxCell>
        <mxCell id="X-HXbELfSK2ipohYZ36a-78" value="" style="endArrow=none;html=1;rounded=0;exitX=1.007;exitY=0.613;exitDx=0;exitDy=0;exitPerimeter=0;" edge="1" parent="WIyWlLk6GJQsqaUBKTNV-1" source="X-HXbELfSK2ipohYZ36a-9">
          <mxGeometry width="50" height="50" relative="1" as="geometry">
            <mxPoint x="510" y="1290" as="sourcePoint" />
            <mxPoint x="580" y="1280" as="targetPoint" />
          </mxGeometry>
        </mxCell>
        <mxCell id="X-HXbELfSK2ipohYZ36a-80" value="" style="endArrow=classic;html=1;rounded=0;exitX=0.541;exitY=1.027;exitDx=0;exitDy=0;exitPerimeter=0;entryX=0.486;entryY=-0.013;entryDx=0;entryDy=0;entryPerimeter=0;" edge="1" parent="WIyWlLk6GJQsqaUBKTNV-1" source="X-HXbELfSK2ipohYZ36a-8" target="X-HXbELfSK2ipohYZ36a-9">
          <mxGeometry width="50" height="50" relative="1" as="geometry">
            <mxPoint x="450" y="1210" as="sourcePoint" />
            <mxPoint x="500" y="1160" as="targetPoint" />
          </mxGeometry>
        </mxCell>
        <mxCell id="X-HXbELfSK2ipohYZ36a-82" value="" style="endArrow=classic;html=1;rounded=0;exitX=0.237;exitY=1.045;exitDx=0;exitDy=0;exitPerimeter=0;" edge="1" parent="WIyWlLk6GJQsqaUBKTNV-1" source="X-HXbELfSK2ipohYZ36a-2">
          <mxGeometry width="50" height="50" relative="1" as="geometry">
            <mxPoint x="650" y="390" as="sourcePoint" />
            <mxPoint x="710" y="380" as="targetPoint" />
          </mxGeometry>
        </mxCell>
        <mxCell id="X-HXbELfSK2ipohYZ36a-83" value="" style="endArrow=classic;html=1;rounded=0;entryX=0;entryY=0.5;entryDx=0;entryDy=0;" edge="1" parent="WIyWlLk6GJQsqaUBKTNV-1" target="X-HXbELfSK2ipohYZ36a-28">
          <mxGeometry width="50" height="50" relative="1" as="geometry">
            <mxPoint x="640" y="681" as="sourcePoint" />
            <mxPoint x="650" y="550" as="targetPoint" />
          </mxGeometry>
        </mxCell>
        <mxCell id="X-HXbELfSK2ipohYZ36a-84" value="" style="endArrow=none;html=1;rounded=0;entryX=0.119;entryY=0.952;entryDx=0;entryDy=0;entryPerimeter=0;" edge="1" parent="WIyWlLk6GJQsqaUBKTNV-1" target="X-HXbELfSK2ipohYZ36a-27">
          <mxGeometry width="50" height="50" relative="1" as="geometry">
            <mxPoint x="640" y="680" as="sourcePoint" />
            <mxPoint x="650" y="550" as="targetPoint" />
          </mxGeometry>
        </mxCell>
        <mxCell id="X-HXbELfSK2ipohYZ36a-85" value="" style="endArrow=classic;html=1;rounded=0;entryX=0.81;entryY=1.021;entryDx=0;entryDy=0;entryPerimeter=0;" edge="1" parent="WIyWlLk6GJQsqaUBKTNV-1" target="X-HXbELfSK2ipohYZ36a-2">
          <mxGeometry width="50" height="50" relative="1" as="geometry">
            <mxPoint x="850" y="680" as="sourcePoint" />
            <mxPoint x="860" y="490" as="targetPoint" />
          </mxGeometry>
        </mxCell>
        <mxCell id="X-HXbELfSK2ipohYZ36a-87" value="Tidak" style="edgeLabel;html=1;align=center;verticalAlign=middle;resizable=0;points=[];" vertex="1" connectable="0" parent="X-HXbELfSK2ipohYZ36a-85">
          <mxGeometry x="-0.5627" relative="1" as="geometry">
            <mxPoint as="offset" />
          </mxGeometry>
        </mxCell>
        <mxCell id="X-HXbELfSK2ipohYZ36a-86" value="" style="endArrow=none;html=1;rounded=0;exitX=1;exitY=0.5;exitDx=0;exitDy=0;" edge="1" parent="WIyWlLk6GJQsqaUBKTNV-1" source="X-HXbELfSK2ipohYZ36a-28">
          <mxGeometry width="50" height="50" relative="1" as="geometry">
            <mxPoint x="830" y="670" as="sourcePoint" />
            <mxPoint x="850" y="680" as="targetPoint" />
          </mxGeometry>
        </mxCell>
        <mxCell id="X-HXbELfSK2ipohYZ36a-88" value="" style="endArrow=classic;html=1;rounded=0;entryX=0.5;entryY=0;entryDx=0;entryDy=0;" edge="1" parent="WIyWlLk6GJQsqaUBKTNV-1" target="X-HXbELfSK2ipohYZ36a-10">
          <mxGeometry width="50" height="50" relative="1" as="geometry">
            <mxPoint x="1000" y="420" as="sourcePoint" />
            <mxPoint x="1000" y="530" as="targetPoint" />
          </mxGeometry>
        </mxCell>
        <mxCell id="X-HXbELfSK2ipohYZ36a-89" value="" style="endArrow=none;html=1;rounded=0;" edge="1" parent="WIyWlLk6GJQsqaUBKTNV-1">
          <mxGeometry width="50" height="50" relative="1" as="geometry">
            <mxPoint x="750" y="420" as="sourcePoint" />
            <mxPoint x="1000" y="420" as="targetPoint" />
          </mxGeometry>
        </mxCell>
        <mxCell id="X-HXbELfSK2ipohYZ36a-90" value="" style="endArrow=none;html=1;rounded=0;entryX=0.999;entryY=0.404;entryDx=0;entryDy=0;entryPerimeter=0;" edge="1" parent="WIyWlLk6GJQsqaUBKTNV-1" target="X-HXbELfSK2ipohYZ36a-14">
          <mxGeometry width="50" height="50" relative="1" as="geometry">
            <mxPoint x="1160" y="1110" as="sourcePoint" />
            <mxPoint x="1060" y="970" as="targetPoint" />
          </mxGeometry>
        </mxCell>
        <mxCell id="X-HXbELfSK2ipohYZ36a-93" value="" style="endArrow=none;html=1;rounded=0;" edge="1" parent="WIyWlLk6GJQsqaUBKTNV-1">
          <mxGeometry width="50" height="50" relative="1" as="geometry">
            <mxPoint x="1160" y="1110" as="sourcePoint" />
            <mxPoint x="1160" y="300" as="targetPoint" />
          </mxGeometry>
        </mxCell>
        <mxCell id="X-HXbELfSK2ipohYZ36a-94" value="" style="endArrow=classic;html=1;rounded=0;entryX=1;entryY=0.5;entryDx=0;entryDy=0;" edge="1" parent="WIyWlLk6GJQsqaUBKTNV-1" target="X-HXbELfSK2ipohYZ36a-2">
          <mxGeometry width="50" height="50" relative="1" as="geometry">
            <mxPoint x="1160" y="298" as="sourcePoint" />
            <mxPoint x="1000" y="260" as="targetPoint" />
          </mxGeometry>
        </mxCell>
        <mxCell id="X-HXbELfSK2ipohYZ36a-95" value="" style="endArrow=none;html=1;rounded=0;exitX=1;exitY=0.5;exitDx=0;exitDy=0;" edge="1" parent="WIyWlLk6GJQsqaUBKTNV-1" source="X-HXbELfSK2ipohYZ36a-12">
          <mxGeometry width="50" height="50" relative="1" as="geometry">
            <mxPoint x="1060" y="910" as="sourcePoint" />
            <mxPoint x="1280" y="901" as="targetPoint" />
          </mxGeometry>
        </mxCell>
        <mxCell id="X-HXbELfSK2ipohYZ36a-96" value="" style="endArrow=classic;html=1;rounded=0;" edge="1" parent="WIyWlLk6GJQsqaUBKTNV-1">
          <mxGeometry width="50" height="50" relative="1" as="geometry">
            <mxPoint x="1280" y="900" as="sourcePoint" />
            <mxPoint x="1280" y="1070" as="targetPoint" />
          </mxGeometry>
        </mxCell>
        <mxCell id="X-HXbELfSK2ipohYZ36a-98" value="" style="endArrow=none;html=1;rounded=0;exitX=0;exitY=0.5;exitDx=0;exitDy=0;" edge="1" parent="WIyWlLk6GJQsqaUBKTNV-1" source="X-HXbELfSK2ipohYZ36a-15">
          <mxGeometry width="50" height="50" relative="1" as="geometry">
            <mxPoint x="1350" y="1500" as="sourcePoint" />
            <mxPoint x="1040" y="1220" as="targetPoint" />
          </mxGeometry>
        </mxCell>
        <mxCell id="X-HXbELfSK2ipohYZ36a-100" value="Admin" style="edgeLabel;html=1;align=center;verticalAlign=middle;resizable=0;points=[];" vertex="1" connectable="0" parent="X-HXbELfSK2ipohYZ36a-98">
          <mxGeometry x="-0.0579" y="2" relative="1" as="geometry">
            <mxPoint as="offset" />
          </mxGeometry>
        </mxCell>
        <mxCell id="X-HXbELfSK2ipohYZ36a-99" value="" style="endArrow=classic;html=1;rounded=0;" edge="1" parent="WIyWlLk6GJQsqaUBKTNV-1">
          <mxGeometry width="50" height="50" relative="1" as="geometry">
            <mxPoint x="1041" y="1220" as="sourcePoint" />
            <mxPoint x="1040" y="1310" as="targetPoint" />
          </mxGeometry>
        </mxCell>
        <mxCell id="X-HXbELfSK2ipohYZ36a-101" value="" style="endArrow=none;html=1;rounded=0;exitX=1;exitY=0.5;exitDx=0;exitDy=0;" edge="1" parent="WIyWlLk6GJQsqaUBKTNV-1" source="X-HXbELfSK2ipohYZ36a-15">
          <mxGeometry width="50" height="50" relative="1" as="geometry">
            <mxPoint x="1290" y="1350" as="sourcePoint" />
            <mxPoint x="1570" y="1220" as="targetPoint" />
          </mxGeometry>
        </mxCell>
        <mxCell id="X-HXbELfSK2ipohYZ36a-103" value="" style="endArrow=classic;html=1;rounded=0;" edge="1" parent="WIyWlLk6GJQsqaUBKTNV-1">
          <mxGeometry width="50" height="50" relative="1" as="geometry">
            <mxPoint x="1570" y="1220" as="sourcePoint" />
            <mxPoint x="1570" y="1309" as="targetPoint" />
            <Array as="points">
              <mxPoint x="1570" y="1300" />
            </Array>
          </mxGeometry>
        </mxCell>
      </root>
    </mxGraphModel>
  </diagram>
</mxfile>
